<?xml version="1.0" standalone="no"?>
<!DOCTYPE svg PUBLIC "-//W3C//DTD SVG 20010904//EN"
 "http://www.w3.org/TR/2001/REC-SVG-20010904/DTD/svg10.dtd">
<svg version="1.0" xmlns="http://www.w3.org/2000/svg"
 width="199.000000pt" height="199.000000pt" viewBox="0 0 199.000000 199.000000"
 preserveAspectRatio="xMidYMid meet">
<metadata>
Created by potrace 1.14, written by Peter Selinger 2001-2017
</metadata>
<g transform="translate(0.000000,199.000000) scale(0.100000,-0.100000)"
fill="#000000" stroke="none">
<path d="M879 1980 c-330 -41 -625 -250 -770 -545 -75 -153 -101 -268 -101
-440 0 -119 4 -155 26 -240 93 -356 365 -628 721 -721 85 -22 121 -26 240 -26
119 0 155 4 240 26 356 93 628 365 721 721 22 85 26 121 26 240 0 119 -4 155
-26 240 -111 425 -477 726 -911 748 -55 3 -130 2 -166 -3z"/>
</g>
</svg>
