<?xml version="1.0" encoding="utf-8"?>
<!-- Generator: Adobe Illustrator 26.5.0, SVG Export Plug-In . SVG Version: 6.00 Build 0)  -->
<svg version="1.1" id="Layer_1" xmlns="http://www.w3.org/2000/svg" xmlns:xlink="http://www.w3.org/1999/xlink" x="0px" y="0px"
	 viewBox="0 0 200 200" style="enable-background:new 0 0 200 200;" xml:space="preserve">
<g>
	<circle style="fill:#FDA768;" cx="101.3" cy="101.6" r="81.8"/>
	<path d="M101,171.9c-38.9,0-70.6-31.8-70.4-70.6c0.2-38.9,31.8-70.2,70.9-70.1c38.6,0.1,70.2,31.8,70.2,70.4
		C171.6,140.5,140,172,101,171.9z M101,159.9c32.4,0,58.8-26.3,58.7-58.5c-0.1-32.1-26.4-58.2-58.5-58.2
		c-32.4,0-58.8,26.3-58.7,58.5C42.6,133.8,68.9,159.9,101,159.9z"/>
	<path d="M100.6,134.2c-3.2,0.7-4.2-1-3.8-4.2c0.4-2.7-0.3-4.3-3.5-4c-1.1,0.1-2.3-0.4-3.5-0.7c-7.7-1.8-8.7-4.1-5.3-11.3
		c0.9-1.9,2-1.3,3.2-0.7c4,1.7,8.2,2.8,12.6,2.5c2.8-0.2,5.5-0.7,6.3-3.9c0.8-3.3-1.5-5-4.1-6.1c-3.3-1.5-6.7-2.6-9.9-4.2
		c-6-2.8-10-7.2-9.7-14.3c0.3-6.9,4.3-11.4,10.7-13.5c2.8-1,3.9-2.4,3.6-5.2c-0.4-3.6,1.4-4.2,4.5-4.2c3.1,0,5,0.5,4.4,4.1
		c-0.4,2.5,0.8,3.6,3.1,3.8c0.6,0,1.2,0.1,1.8,0.2c7.2,1.2,8.6,4.3,5,10.8c-1.1,2-2.2,0.9-3.3,0.5c-3.4-1.1-6.9-2.1-10.5-1.8
		c-2.4,0.2-5,0.7-5.7,3.5c-0.8,3,1.7,4.3,3.8,5.3c3.1,1.5,6.4,2.6,9.5,4.1c9.4,4.3,13,11.9,9.7,20.2c-1.9,4.8-5.5,7.9-10.3,9.3
		c-2.8,0.8-3.7,2.2-3.7,5.1C105.8,134.2,105.6,134.2,100.6,134.2z"/>
</g>
</svg>
